<?xml version="1.0" standalone="no"?>
<!DOCTYPE svg PUBLIC "-//W3C//DTD SVG 20010904//EN"
 "http://www.w3.org/TR/2001/REC-SVG-20010904/DTD/svg10.dtd">
<svg version="1.0" xmlns="http://www.w3.org/2000/svg"
 width="512.000000pt" height="512.000000pt" viewBox="0 0 512.000000 512.000000"
 preserveAspectRatio="xMidYMid meet">
<metadata>
Created by potrace 1.14, written by Peter Selinger 2001-2017
</metadata>
<g transform="translate(0.000000,512.000000) scale(0.100000,-0.100000)"
fill="#000000" stroke="none">
<path d="M331 5032 c-59 -20 -133 -94 -153 -154 -20 -57 -16 -142 7 -189 24
-47 73 -97 120 -122 54 -29 163 -30 219 -2 189 92 192 360 4 456 -52 26 -139
32 -197 11z m144 -175 c53 -45 24 -139 -45 -150 -30 -5 -76 16 -90 42 -47 88
60 173 135 108z"/>
<path d="M2523 4782 c-62 -20 -107 -94 -93 -155 18 -80 78 -124 152 -112 153
26 152 246 -2 268 -19 3 -45 3 -57 -1z"/>
<path d="M4573 4696 l-27 -24 -1 -138 c0 -77 1 -149 3 -161 11 -58 85 -83 133
-44 23 18 24 26 27 166 4 161 -3 195 -44 214 -37 17 -60 14 -91 -13z"/>
<path d="M4185 4300 c-51 -20 -66 -93 -27 -133 21 -20 32 -22 172 -23 165 -1
187 4 206 52 17 42 -8 95 -50 105 -37 10 -275 9 -301 -1z"/>
<path d="M4755 4298 c-31 -18 -44 -40 -44 -73 0 -70 32 -83 212 -81 l149 1 24
28 c13 16 24 37 24 49 0 28 -30 76 -51 81 -40 11 -294 7 -314 -5z"/>
<path d="M4578 4126 c-29 -22 -35 -56 -33 -204 1 -159 8 -175 72 -188 27 -5
37 -1 63 24 l30 30 0 150 c0 144 -1 150 -25 176 -27 29 -77 35 -107 12z"/>
<path d="M1154 4068 c-24 -11 -44 -48 -44 -79 0 -11 18 -39 40 -63 22 -24 40
-47 40 -51 0 -4 -18 -27 -40 -51 -49 -53 -51 -84 -10 -126 26 -25 36 -29 63
-24 17 4 48 22 67 41 20 19 40 35 44 35 5 0 29 -18 53 -41 39 -35 49 -40 76
-35 18 3 42 18 55 32 32 37 23 77 -27 128 l-40 40 44 47 c37 40 43 52 40 80
-3 21 -15 43 -31 57 -37 32 -77 23 -129 -27 l-40 -39 -35 35 c-52 51 -84 62
-126 41z"/>
<path d="M2560 3743 c-33 -3 -120 -17 -185 -29 -145 -26 -342 -96 -486 -172
-537 -283 -897 -798 -976 -1397 -12 -89 -9 -400 5 -480 20 -118 22 -127 43
-210 131 -517 483 -954 964 -1195 178 -89 312 -133 530 -175 135 -25 391 -26
570 -1 215 30 470 124 670 246 145 89 342 254 441 372 226 267 359 552 429
917 20 106 27 375 12 506 -31 282 -135 563 -303 815 -72 109 -100 143 -204
252 -60 63 -82 80 -112 85 -48 7 -88 -29 -88 -80 0 -28 11 -45 66 -103 144
-150 233 -273 317 -440 84 -166 148 -393 163 -571 l6 -78 -517 0 -517 0 -32
97 c-18 54 -50 124 -71 155 -286 434 -935 373 -1136 -107 -15 -36 -31 -81 -34
-100 -3 -19 -8 -37 -11 -40 -3 -3 -237 -5 -521 -5 l-515 0 6 76 c37 472 318
940 731 1219 72 49 261 151 300 163 11 3 54 18 95 32 188 64 337 89 545 89
192 0 337 -22 522 -80 50 -15 94 -23 108 -20 26 7 54 42 60 73 5 31 -27 72
-69 88 -52 21 -251 72 -313 81 -26 3 -57 8 -68 11 -25 6 -378 11 -425 6z m311
-1373 c196 -52 341 -235 352 -445 10 -177 -100 -363 -262 -444 -51 -25 -74
-33 -136 -47 -26 -6 -134 -6 -164 1 -322 65 -491 412 -339 697 62 117 205 224
330 247 56 10 163 6 219 -9z m-759 -580 c9 -60 66 -211 87 -230 4 -3 18 -21
32 -40 231 -311 693 -343 968 -69 87 87 151 206 175 323 l13 61 516 3 517 2 0
-32 c0 -30 -13 -128 -26 -203 -64 -369 -290 -750 -589 -995 -236 -193 -543
-329 -830 -367 -78 -10 -395 -10 -460 0 -193 31 -334 75 -500 157 -262 128
-466 302 -641 545 -98 137 -211 378 -254 545 -13 48 -15 60 -24 111 -3 19 -8
45 -11 59 -3 14 -8 60 -11 103 l-6 77 518 -2 519 -3 7 -45z"/>
<path d="M2692 2228 c-196 -30 -320 -236 -256 -424 30 -89 81 -146 174 -195
68 -35 194 -34 270 2 69 34 122 84 157 151 24 46 28 64 28 143 0 73 -4 98 -23
136 -68 139 -202 210 -350 187z m124 -179 c77 -37 110 -126 75 -204 -52 -116
-191 -134 -275 -35 -14 18 -27 39 -27 48 -1 9 -3 31 -5 47 -5 46 31 111 79
140 51 30 97 32 153 4z"/>
<path d="M3590 3507 c-13 -7 -31 -24 -39 -39 -24 -43 -6 -76 69 -125 92 -61
144 -56 171 14 14 37 -8 73 -71 114 -66 44 -97 52 -130 36z"/>
<path d="M4803 3044 c-121 -61 -78 -257 56 -257 106 0 171 102 125 198 -9 19
-27 41 -40 50 -37 24 -104 28 -141 9z"/>
<path d="M213 3029 c-250 -44 -288 -383 -54 -486 57 -25 141 -20 205 11 92 45
141 127 140 231 -2 154 -141 270 -291 244z m105 -195 c51 -58 9 -144 -71 -144
-27 0 -76 41 -78 65 -1 8 -2 21 -3 28 -3 19 25 64 48 76 31 16 78 4 104 -25z"/>
</g>
</svg>
